# xmcd
#
# Track frame offsets:
#	150
#	16286
#	33182
#	48734
#	62562
#	82064
#	97677
#	115312
#	131229
#	148204
#	162768
#	180491
#	197628
#	215267
#	230026
#	244591
#	258946
#	273903
#	286857
#	301140
#
# Disc length: 4229
#
# Revision: 2
# Processed by: cddbd v1.5.1PL0 Copyright (c) Steve Scherf et al.
# Submitted via: audiograbber 1.80
# Normalized: r1:TDELIM( - )
#
DISCID=15108314
DTITLE=Bravo hits 34 - cd 2
DYEAR=1900
DGENRE=
TTITLE0=unkle kracker - follow me
TTITLE1=titiyo - come along
TTITLE2=wheatus - a little respect
TTITLE3=safri duo - samba adagio
TTITLE4=sylver - forever in love
TTITLE5=atb - let u go
TTITLE6=schiller mit heppner - dream of you
TTITLE7=tukan - light a rainbow
TTITLE8=pulsedriver - cambodia
TTITLE9=the love committee - you can't stop us
TTITLE10=k5 - passion
TTITLE11=phil fuldner - miami pop
TTITLE12=barcode brothers - flute
TTITLE13=hermes house band - country roads
TTITLE14=captain jack - iko iko
TTITLE15=passion fruit - bongo man
TTITLE16=king africa - la bomba
TTITLE17=fun-tc - crazy
TTITLE18=naive - looking 4 happiness
TTITLE19=daddy dj - daddy dj
EXTD=
EXTT0=
EXTT1=
EXTT2=
EXTT3=
EXTT4=
EXTT5=
EXTT6=
EXTT7=
EXTT8=
EXTT9=
EXTT10=
EXTT11=
EXTT12=
EXTT13=
EXTT14=
EXTT15=
EXTT16=
EXTT17=
EXTT18=
EXTT19=
PLAYORDER=
